<?xml version="1.0" encoding="utf-8"?>
<!-- Generator: Adobe Illustrator 22.1.0, SVG Export Plug-In . SVG Version: 6.00 Build 0)  -->
<svg version="1.1" id="Capa_1" xmlns="http://www.w3.org/2000/svg" xmlns:xlink="http://www.w3.org/1999/xlink" x="0px" y="0px"
	 viewBox="0 0 100 100" style="enable-background:new 0 0 100 100;" xml:space="preserve">
<style type="text/css">
	.st0{fill:#FFFFFF;}
</style>
<g>
	<g>
		<path class="st0" d="M49.5,96C23.9,96,3,75.1,3,49.5S23.9,3,49.5,3C75.1,3,96,23.9,96,49.5S75.1,96,49.5,96z M49.5,4.9
			c-24.6,0-44.6,20-44.6,44.6s20,44.6,44.6,44.6c24.6,0,44.6-20,44.6-44.6S74.1,4.9,49.5,4.9z"/>
	</g>
	<g>
		<path class="st0" d="M56.2,35.2c-0.2,0.1-0.4,0.2-0.7,0.1c-0.3,0-0.5-0.1-0.7-0.3c-0.2-0.1-0.3-0.3-0.3-0.5c0-0.2,0-0.3,0.2-0.4
			c0.1,0,0.1,0,0,0c-0.1,0.1-0.1,0,0,0l0.2-0.2c0.1-0.2,0.1-0.3,0.1-0.3l0.1-0.1c0.2-0.3,0.3-0.6,0.4-0.9c0.1-0.3,0.3-0.5,0.4-0.9
			c0.2-0.6,0.5-1.3,0.7-1.9c0.2-0.6,0.4-1.3,0.5-1.9v-0.1v-0.1v-0.2c0-0.1,0-0.1,0-0.2c0,0,0-0.1,0-0.2c0,0-0.1-0.1-0.1-0.1
			c0,0.1,0,0.1,0,0.1c0,0,0-0.1,0-0.1c0-0.1-0.1-0.2-0.1-0.3c0-0.1-0.1-0.2-0.1-0.3c0,0-0.1-0.1-0.1-0.1c0,0,0-0.1-0.1-0.1
			c0-0.1,0-0.1,0,0c0.1,0.1,0.1,0.1,0,0l-0.1-0.1c0-0.1-0.1-0.2-0.2-0.2l-0.1-0.1c0,0-0.1-0.1-0.1-0.1c0,0,0,0-0.1-0.1
			c-0.1-0.1-0.1-0.1,0,0c0.1,0.1,0.1,0,0,0c0,0-0.1,0-0.3-0.1c-0.1,0-0.1,0,0.1,0c0.1,0.1,0.1,0.1,0.1,0c0,0-0.1,0-0.1,0
			c0,0,0,0-0.1,0c0,0-0.1,0-0.1,0c0,0-0.1,0-0.1,0c-0.1,0-0.1,0,0,0c0.1,0,0.1,0,0,0c-0.2,0-0.3,0-0.3-0.1h-0.1
			c-0.3,0-0.5,0-0.6,0.1h-0.3h-0.2c-0.1,0-0.1,0,0,0c0.1,0,0.1,0,0,0c-0.1,0-0.2,0.1-0.3,0.1c-0.1,0-0.2,0-0.3,0.1
			c-0.2,0.1-0.4,0.1-0.6,0.2c-0.2,0.1-0.5,0.1-0.6,0.2c0,0-0.2,0-0.4,0.1l-0.1,0.1c-0.1,0.1-0.1,0.1-0.1,0c0.1-0.1,0.1-0.1,0,0
			c-0.3,0.2-0.5,0.3-0.6,0.4c-1.7,0.8-3.4,1.7-4.9,2.8c-1.5,1.1-3,2.2-4.5,3.4c0,0-0.1,0.1-0.1,0.1c-0.1,0,0,0,0-0.1L41.4,33
			c-0.1,0.1-0.3,0.2-0.4,0.4c-0.2,0.1-0.3,0.2-0.4,0.4c-0.1,0.1-0.3,0.3-0.4,0.4c-0.7,0.6-1.4,1.2-2.1,1.9c-0.8,0.8-1.6,1.6-2.4,2.4
			c-0.8,0.8-1.6,1.7-2.4,2.6c-1.7,1.9-3.4,3.9-4.9,6.1c-1.5,2.1-2.8,4.3-3.9,6.7c-1.1,2.3-1.8,4.6-2.2,6.9c0,0.3-0.1,0.6-0.1,0.8
			c0,0.2,0,0.5,0,0.8c0,0.3,0,0.5,0,0.8c0,0.3,0,0.5,0.1,0.8c0,0.2,0,0.4,0,0.6c0,0.2,0,0.4,0.1,0.6c0,0,0.1,0.1,0.1,0.2
			c0,0,0,0.1,0,0.1c0,0,0,0,0,0.1c0,0.1,0,0.1,0,0c0-0.1,0-0.1,0,0c0.1,0.2,0.1,0.3,0.1,0.4c0.1,0.2,0.2,0.4,0.4,0.6
			c-0.1-0.1-0.1-0.1,0-0.1c0.1,0.1,0.1,0.2,0.1,0.2l0.2,0.2c-0.2-0.1-0.2-0.1-0.1-0.1c0.1,0.1,0.2,0.1,0.2,0.2c0,0,0.1,0,0.1,0.1
			c0.1,0.1,0.1,0.1-0.1,0c-0.1-0.1-0.1-0.1,0,0c0,0,0.1,0.1,0.3,0.2c0.1,0,0.1,0-0.1,0c-0.1-0.1-0.1-0.1-0.1,0c0,0,0.1,0,0.1,0
			c0,0,0,0,0.1,0c0,0,0.1,0.1,0.3,0.1c-0.2,0-0.3,0-0.2,0c0.1,0,0.2,0,0.3,0.1h0.4h-0.1h0.2c0.1,0,0.2,0,0.4,0c0.1,0,0.3,0,0.4-0.1
			c0.1,0,0.2,0,0.2-0.1c-0.2,0-0.3,0.1-0.2,0.1c0.1,0,0.1,0,0.2-0.1c0.1,0,0.1,0,0.2,0c0.1,0,0.1,0,0.2,0c0.3-0.1,0.6-0.2,0.9-0.3
			c0.3-0.1,0.6-0.2,0.9-0.3l0.5-0.2l0.2-0.1c0.1,0,0.1,0,0,0c-0.1,0.1-0.1,0.1,0,0c0,0,0.1-0.1,0.1-0.1c0.2-0.1,0.4-0.2,0.5-0.2
			c0.2-0.1,0.3-0.2,0.5-0.2c0.7-0.4,1.5-0.7,2.2-1.1c0.7-0.4,1.5-0.8,2.2-1.3c1.6-1,3.2-2.1,4.8-3.1c1.5-1.1,3.1-2.2,4.6-3.3
			c1.4-1.1,2.9-2.1,4.3-3.2c1.4-1.1,2.8-2.1,4.2-3.2c0.5-0.4,1.1-0.8,1.6-1.1c0.5-0.4,1-0.7,1.6-1.1c0.2-0.1,0.4-0.2,0.6-0.4
			c0.2-0.1,0.4-0.2,0.6-0.3c0.2-0.1,0.5-0.2,0.7-0.4c0.3-0.1,0.5-0.2,0.8-0.1h-0.4h0.1c0.2-0.1,0.4-0.1,0.7,0
			c0.3,0.1,0.5,0.2,0.6,0.4c0.2,0.2,0.2,0.4,0.1,0.5c-0.1,0.1-0.2,0.2-0.4,0.3c0,0-0.1,0-0.1,0c0,0,0,0-0.1,0c0.1,0,0.1-0.1,0.1-0.1
			c0,0,0.1,0,0.1-0.1c0,0.1-0.1,0.1-0.2,0.1c-0.1,0-0.2,0-0.2,0.1c-0.1,0.1-0.3,0.2-0.4,0.2c-0.2,0.1-0.3,0.2-0.5,0.3
			c-0.2,0.1-0.3,0.2-0.5,0.3c-0.4,0.3-0.9,0.6-1.3,0.9c-0.4,0.3-0.8,0.6-1.3,0.9c-1.4,1-2.7,2-4.1,3c-1.3,1-2.7,2-4.1,3.1
			c-1.6,1.1-3.1,2.3-4.7,3.4c-1.5,1.1-3.1,2.2-4.8,3.2c-1.4,0.9-2.8,1.7-4.2,2.5c-1.4,0.8-2.9,1.4-4.5,1.9c-1.1,0.4-2.3,0.5-3.6,0.5
			c-1.3,0-2.3-0.5-3.2-1.4c-0.4-0.5-0.7-1.1-0.9-1.7c-0.2-0.6-0.3-1.2-0.3-1.9c-0.1-1.2,0-2.4,0.1-3.5c0.2-1.2,0.5-2.3,0.9-3.5
			c0.8-2.5,1.9-4.9,3.2-7.1c1.4-2.2,2.9-4.4,4.5-6.4c1.4-1.8,2.9-3.5,4.4-5.1c1.5-1.6,3.2-3.2,4.8-4.7c1.3-1.1,2.6-2.2,4.1-3.3
			c1.4-1.1,2.9-2,4.3-2.9c0.9-0.5,1.8-1,2.7-1.5c0.9-0.5,1.9-0.8,2.9-1.1c0.8-0.2,1.7-0.3,2.7-0.3c1,0,1.8,0.3,2.5,1
			c0.4,0.3,0.7,0.7,0.9,1.1c0.2,0.4,0.4,0.8,0.5,1.2c0.1,0.5,0.1,1,0,1.4c-0.1,0.5-0.2,1-0.4,1.4c-0.4,1.1-0.8,2.1-1.2,3.2
			c-0.1,0.2-0.2,0.4-0.3,0.6c-0.1,0.2-0.2,0.4-0.4,0.6c-0.1,0.1-0.2,0.2-0.2,0.3C56.4,35,56.3,35.1,56.2,35.2z"/>
		<path class="st0" d="M77.2,47.3c0.1,0.1,0.2,0.2,0.4,0.4c0.1,0.2,0.1,0.3,0,0.5c-0.9,0.9-1.8,1.7-2.8,2.5c-1,0.8-1.9,1.5-3,2.3
			c-1,0.7-2.1,1.4-3.1,2c-1.1,0.6-2.2,1.2-3.3,1.7c-1,0.4-2,0.8-3.1,1.1C61.2,58,60.1,58,59,57.8c-0.2,0-0.4-0.1-0.6-0.2
			c-0.2-0.1-0.3-0.2-0.4-0.4C58,57,58,56.8,58.3,56.7c0,0,0.1,0,0.2-0.1l0.1-0.1l0.1-0.1l0.5-0.5l1.4-1.3c0.5-0.5,1.1-1.1,1.6-1.6
			c0.5-0.5,1-1.1,1.4-1.8l0.8-1.1l0.4-0.6c0,0,0-0.1,0-0.1c0,0,0,0,0-0.1l0.1-0.2c0.2-0.4,0.3-0.7,0.3-0.9c0,0,0.1-0.1,0.1-0.2v-0.1
			V48c0-0.1-0.1-0.1-0.2-0.1h-0.1h-0.2c-0.1,0-0.2,0-0.2,0.1h-0.1c-0.2,0-0.3,0-0.4,0.1c-0.1,0-0.2,0-0.4,0.1c-0.1,0-0.1,0-0.2,0.1
			c-0.3,0.1-0.5,0.2-0.8,0.4c-0.2,0.1-0.5,0.3-0.6,0.5c-0.3,0.2-0.5,0.4-0.7,0.5c-0.2,0.1-0.4,0.3-0.6,0.5c-0.4,0.4-0.8,0.7-1.2,1.2
			c-0.3,0.4-0.6,0.8-0.9,1.1c-0.3,0.4-0.6,0.8-0.9,1.2c-0.2,0.2-0.3,0.4-0.4,0.6c-0.1,0.2-0.3,0.4-0.4,0.6l-1.1,1.6l-0.8,1.2
			c-0.6,1.5-1.2,3-1.8,4.6c-0.6,1.5-1.2,3-1.7,4.5c-0.3,0.7-0.6,1.5-0.9,2.2c-0.3,0.7-0.6,1.4-0.9,2.1c-0.3,0.7-0.7,1.3-1.1,1.9
			c-0.4,0.6-0.9,1.2-1.4,1.7c-0.2,0.2-0.5,0.3-0.9,0.2c-0.4-0.1-0.6-0.3-0.8-0.6c-0.2-0.5-0.3-1.1-0.3-1.7c0-0.6,0.1-1.1,0.2-1.7
			c0.3-1.2,0.7-2.4,1.4-3.7c0.3-0.6,0.6-1.2,0.9-1.7c0.3-0.6,0.7-1.1,1-1.7c0.5-0.7,0.9-1.5,1.4-2.2c0.5-0.7,1-1.5,1.5-2.2l2.1-3.1
			l0.1-0.4c0.3-0.8,0.6-1.6,0.9-2.4c0.3-0.8,0.6-1.6,0.9-2.4c0.3-0.7,0.5-1.4,0.8-2.1c0.2-0.7,0.4-1.4,0.5-2.1
			c-0.1,0-0.2-0.1-0.2-0.3c-0.1-0.1-0.1-0.2,0-0.3l0.1-0.1v0.1c0-0.1,0.1-0.2,0.3-0.2c0,0,0.1,0,0.1,0c0,0,0.1,0,0.1,0
			c0.2,0,0.5,0,0.8,0.1c0.1,0,0.2,0.1,0.3,0.2c0.1,0.1,0.1,0.2,0.1,0.3c0,0.7-0.1,1.3-0.3,1.9c-0.1,0.6-0.3,1.2-0.5,1.9
			c0.3-0.3,0.5-0.6,0.8-0.9c0.3-0.3,0.6-0.5,0.9-0.8c0.4-0.4,0.9-0.8,1.4-1.1c0.5-0.3,1-0.6,1.6-0.8c0.5-0.2,1-0.3,1.6-0.3
			c0.6-0.1,1.1,0,1.6,0.2c0.4,0.2,0.7,0.4,1,0.6c0.3,0.3,0.4,0.6,0.4,1c0,0.4-0.1,0.7-0.2,1c-0.1,0.3-0.3,0.7-0.5,1
			c-0.4,0.8-1,1.5-1.6,2.3c-0.6,0.7-1.2,1.4-1.9,2.1c-0.3,0.3-0.6,0.6-0.9,0.9c-0.3,0.3-0.6,0.6-0.9,0.9c0.4-0.1,0.7-0.2,0.8-0.2
			c0.3-0.1,0.6-0.2,0.9-0.3c0.3-0.1,0.6-0.2,0.9-0.4c-0.1,0-0.1,0,0,0c0.1,0,0.1-0.1,0.2-0.1c0.1-0.1,0.2-0.1,0.2-0.1l0.5-0.2
			l0.9-0.5c1.1-0.5,2.2-1.2,3.2-1.8c1-0.7,2-1.4,3.1-2.2c0.5-0.3,0.9-0.6,1.4-1l0.6-0.5l0.5-0.4c0.6-0.5,1.2-1,1.7-1.5
			c0.2-0.2,0.3-0.2,0.5-0.2C76.8,47.2,77,47.2,77.2,47.3z M50.3,64.9c-0.5,0.8-0.9,1.5-1.3,2.2c-0.3,0.6-0.6,1.3-0.9,1.9
			c-0.3,0.6-0.5,1.3-0.7,1.9c0,0.2-0.1,0.3-0.1,0.5c0,0.2,0,0.3-0.1,0.5c0.5-0.9,1-1.8,1.4-2.7c0.4-0.9,0.7-1.9,1.1-2.8L50.3,64.9z"
			/>
	</g>
</g>
</svg>
